<svg height="40" viewBox="0 0 40 40" width="40" xmlns="http://www.w3.org/2000/svg"><path d="m2 2h36v36c-12 0-12 0-12.1 0s-.2 0-.4 0h-.9-3.8-15-2.5q-.6 0-1.2 0-.1 0-.1 0z" fill="#f5e5c3"/><path d="m23.76 25.02c.17-.22.34-.42.43-.69.17-.53-.25-.88-.73-.89q-.67-.01-1.33 0h-2.81-8.76c-.73 0-2.95.08-3.51-.09-.46-.13-.81-.47-.92-.94-.08-.34-.03-.71.16-1 .21-.33.56-.55.93-.63.41-.09.91-.03 1.32-.03h2.15 10.64 2.66c.55 0 1.2.03 1.75-.06.35-.06.6-.49.51-.83-.12-.5-.57-.57-1.01-.58q-.98-.02-1.96-.01h-3.68-11.13-2.46c-.62 0-1.5.06-2.09-.09-.83-.2-1.24-1.34-.75-2.04.15-.25.46-.5.75-.54.57-.07 1.23-.05 1.81-.05h3.25 16.37l5.06.01q1.26.01 2.52-.02c.24-.01.64-.15.76-.37.34-.58-.08-1.13-.71-1.14q-1.21-.02-2.41-.01h-4.6-14.06-3.15q-.75 0-1.5 0c-1.54-.02-1.83-2.27-.35-2.66.45-.12 1.11-.08 1.59-.08h1.83 6.73 11.13 3.59c.66 0 1.34-.02 1.99.01.62.03 1.25.16 1.77.52 2.53 1.74 1.69 5.63-1.32 6.2-.37.07-.73.08-1.1.13-1.27.19-1.98.73-2.69 1.77-.69 1.04-1.42 2.06-2.1 3.1-.41.64-.78 1.44-1.21 2.06-.76 1.13-2.05 2.12-3.2 2.81-1.26.51-1.83.56-3.21.48-.23-.01-.76-.04-.97-.11.77-.33 1.38-.89 1.93-1.5.04-.03.33-.4.39-.47q.88-1.11 1.7-2.26z" fill="#e89419"/><path d="m11.53 8.11c1.03-.06 2.46-.02 3.52-.02h6.56 5.94c1.02 0 2.06-.01 3.07.02.37.03.74.06 1.04.31 1.12.92.62 2.23-.73 2.42-.4.07-1.81.04-2.27.04h-4.58-8.2-2.67c-.77 0-1.84.11-2.5-.29-.59-.35-.82-1.21-.42-1.78.33-.47.7-.59 1.24-.7z" fill="#cd4317"/><g fill="#121916"><path d="m19.74 29.25c.21.07.74.1.97.11 1.38.08 1.95.03 3.21-.48-1.13 1.4-3.37 2.93-5.2 3.15-.4.04-1.54.02-1.98.02h-3.65-3.4c-.59 0-1.18.01-1.76-.02-.3-.02-.6-.1-.82-.29-.88-.8-.47-2.37.81-2.38q1.48 0 2.93 0h5.58c.6 0 2.92.07 3.31-.11z"/><path d="m21.67 27.75c-.12-.06-1.14-.04-1.34-.04q-4.83 0-9.65-.01c-.41 0-.85-.15-1.11-.46-.23-.26-.36-.63-.31-.98.19-1.56 1.73-1.2 2.85-1.25q.51-.01 1.01 0l4.21-.01h4c.67 0 1.8-.03 2.43.02q-.82 1.15-1.7 2.26c-.06.07-.35.44-.39.47z"/></g></svg>